<?xml version="1.0" encoding="UTF-8"?>
<svg width="1200pt" height="1200pt" version="1.1" viewBox="0 0 1200 1200" xmlns="http://www.w3.org/2000/svg">
 <path d="m953.88 929.27c-29.32-92.754-109.95-111.42-202.31-137.81-66.102-18.887-77.379-118.84-78.453-174.17 13.953-11.59 26.512-25.867 37.75-42.309l31.168 23.895c35.984-89.715 60.797-193.06 33.59-288.57-13.719-48.168-47.648-90.215-91.773-113.89-51.273-27.512-117.81-22.34-169.31 2.9609-138.64 68.105-108.82 280.45-71.887 399.51l47.992-21.75c10.855 15.523 22.906 29.086 36.242 40.164-1.0742 55.328-12.355 155.29-78.453 174.17-92.363 26.391-172.99 45.051-202.31 137.81l-29.32 92.75h766.4l-29.32-92.754z"/>
</svg>
