<?xml version="1.0" encoding="UTF-8"?>
<svg width="1200pt" height="1200pt" version="1.1" viewBox="0 0 1200 1200" xmlns="http://www.w3.org/2000/svg">
 <path d="m437.95 830.55c-35.895 14.246-224.34 47.828-232.41 95.656-8.0781 47.828-16.152 126.18-16.152 126.18h821.22s-8.0742-78.355-16.152-126.18-196.52-81.41-232.41-95.656c-35.895-14.246-35.895-29.512-35.895-29.512s-16.152-107.87-16.152-113.97c0-6.1055 9.8711-13.23 30.508-53.934 2.2031-4.3477 4.168-10.77 5.9453-18.609h10.109s22.84-10.465 31.777-31.391c8.9375-20.926 18.867-78-6.9492-78h-9.2148c11.117-30.871 24.5-79.637 25.648-138.12 0.75-38.289-9.7188-69.465-25.652-89.863 39.316 3.5273 79.672 0.81641 74.973-26.375-6.9414-40.145-94.699-44.848-133.58-44.949 37.719-1.0938 118.13-5.9414 88.895-27.484-37.734-27.805-147.96 9.9297-147.96 9.9297s100.29-40.711 43.691-40.66c-56.609 0.054687-98.195 32.719-98.195 32.719s47.543-60.57-34.875-16.879c-51.172 27.129-73.992 63.805-83.961 87.73-40.57-4.9531-80.422 42.348-78.98 115.83 1.1484 58.488 14.527 107.26 25.645 138.12h-9.2148c-25.82 0-15.887 57.07-6.9492 78 8.9375 20.926 31.777 31.391 31.777 31.391h10.109c1.7773 7.8398 3.7422 14.262 5.9453 18.609 20.637 40.703 30.508 47.828 30.508 53.934 0 6.1055-16.152 113.97-16.152 113.97-0.003906 0-0.003906 15.266-35.898 29.512z"/>
</svg>
