<?xml version="1.0" encoding="UTF-8"?>
<svg width="1200pt" height="1200pt" version="1.1" viewBox="0 0 1200 1200" xmlns="http://www.w3.org/2000/svg">
 <path d="m631.18 137.53c-155.75 0-282 126.27-282 282 0 155.75 126.25 282 282 282 155.75 0 282-126.25 282-282s-126.25-282-282-282zm510.19 1010.1c-1.2461-205.93-114.38-384.11-279.14-471.62-61.379 54.996-142.36 88.512-231.12 88.512-88.691 0-169.67-33.516-230.98-88.512-37.727 20.051-72.574 45.047-104.16 73.836l-33.961-27.086 29.16-136.85c23.578-10.223 40.066-33.684 40.066-61.031v-92.941c0-16.105-5.9414-30.66-15.469-42.18 18.809-157.65 152.71-279.93 315.43-279.93s296.59 122.27 315.41 279.88c0.046875-0.058594 0.12109-0.12109 0.16797-0.19141-9.625 11.543-15.66 26.207-15.66 42.422v92.941c0 36.758 29.773 66.527 66.539 66.527 36.742 0 66.527-29.762 66.527-66.527v-92.941c0-35.617-28.02-64.414-63.203-66.191-29.66-177.53-183.97-313.39-369.78-313.39s-340.13 135.85-369.8 313.4c-5.8672 0.28906-11.426 1.5859-16.801 3.2891-1.4297-0.35938-2.8203-0.80469-4.2734-1.1172-51.422-10.934-100.95 16.969-110.58 62.328 0 0-65.426 303.24-66.48 306.95-10.344 36.266-3.5391 85.234 22.934 106.33l84.805 77.855c-31.465 68.605-49.5 145.2-49.992 226.22l1020.4 0.003906z"/>
</svg>
