<?xml version="1.0" encoding="UTF-8"?>
<svg width="1200pt" height="1200pt" version="1.1" viewBox="0 0 1200 1200" xmlns="http://www.w3.org/2000/svg">
 <path d="m511.98 664.48c-8.3828 2.0977-212.72 102.69-228.44 159.28-15.719 56.586 0 197 0 197 0.003907 0 27.25 52.391 316.46 52.391s316.46-52.395 316.46-52.395 15.719-140.41 0-197-220.05-157.18-228.44-159.28c-8.3828-2.0938-15.719-45.059-15.719-79.637 0-4 0.75-8.0391 1.9766-12.066h48.508l2.1992 30.031 28.238-28.688v50.008l22.793-51.355c22.441-45.531 35.547-100.24 35.547-159.12 0-158.4-94.719-286.8-211.56-286.8s-211.56 128.41-211.56 286.8c0 58.875 13.105 113.58 35.547 159.12l18.047 47.898 4.6094-47.898 16.711 23.949 6.3359-23.949h56.031c1.2266 4.0273 1.9766 8.0703 1.9766 12.066 0 34.586-7.332 77.551-15.719 79.645z"/>
</svg>
