<?xml version="1.0" encoding="UTF-8"?>
<svg width="1200pt" height="1200pt" version="1.1" viewBox="0 0 1200 1200" xmlns="http://www.w3.org/2000/svg">
 <path d="m84 1152h278.4v-470.4c-164.4 87.598-277.2 265.2-278.4 470.4z"/>
 <path d="m988.8 826.8 19.984-12.215-53.352-89.785-39.836 24c-30-26.398-62.398-49.199-97.199-68.398v126l-30 18v-120c-56.398 40.801-126 64.801-201.6 64.801-72 0-139.2-22.801-195.6-61.199v187.2h236.4c-3.5938 3.5977-7.1953 7.1953-9.5938 10.797l-139.94 187.32c-26.008 34.816 3.4219 83.621 46.352 76.867l244.79-38.508c19.199-3.6016 37.199-12 49.199-25.199v45.523h278.4c0.003906-122.4-40.797-235.2-108-325.2zm-170.4 174c-6-12-13.199-24-21.602-37.199-4.7969-9.6016-3.5977-15.602-2.3984-20.402 2.3984-7.1992 7.1992-14.398 14.398-21.602l4.8047 8.4023 3.6016-2.3984v73.199zm5.1523-107.41-6.9258-11.66c-15.602 10.801-39.023 29.07-47.426 53.07-4.8008 14.398-2.3984 28.801 4.8008 43.199 19.875 37.125 26.398 60 26.398 60 9.6016 32.398-10.801 62.398-44.398 68.398l-234.89 37.086c-20.203 3.1914-33.145-18.43-20.793-34.73l138.08-184.76c20.398-27.602 57.602-30 81.602-7.1992 0 0 19.199 19.199 22.801 22.801 6.4492-42.789 45.078-66.5 60-75.602l2.3672-1.5547-7.3945-12.449 148.45-88.191 25.773 43.398z"/>
 <path d="m243.6 412.8h684c25.199 0 48-18 50.398-43.199 2.3984-28.801-20.398-52.801-48-52.801h-33.602c-24-109.2-103.2-196.8-206.4-232.8v135.6c0 9.6016-7.1992 16.801-16.801 16.801-9.6016 0-16.801-7.1992-16.801-16.801v-144c-1.1992-16.801-31.199-30-69.602-30-38.398 0-69.602 13.199-69.602 30v145.2c0 9.6016-7.1992 16.801-16.801 16.801-9.6016 0-16.801-7.1992-16.801-16.801l0.007812-136.8c-104.4 36-183.6 123.6-206.4 232.8h-32.398c-25.199 0-48 18-50.398 43.199-2.4062 28.801 20.395 52.801 49.195 52.801z"/>
 <path d="m868.8 440.4h-562.8c8.3984 147.6 130.8 265.2 280.8 265.2s273.6-117.6 282-265.2z"/>
</svg>
